<?xml version="1.0" encoding="UTF-8" standalone="no"?>
<!-- Created with Inkscape (http://www.inkscape.org/) -->

<svg
   xmlns:dc="http://purl.org/dc/elements/1.1/"
   xmlns:cc="http://creativecommons.org/ns#"
   xmlns:rdf="http://www.w3.org/1999/02/22-rdf-syntax-ns#"
   xmlns:svg="http://www.w3.org/2000/svg"
   xmlns="http://www.w3.org/2000/svg"
   xmlns:sodipodi="http://sodipodi.sourceforge.net/DTD/sodipodi-0.dtd"
   xmlns:inkscape="http://www.inkscape.org/namespaces/inkscape"
   width="210mm"
   height="297mm"
   viewBox="0 0 744.09448819 1052.3622047"
   id="svg2"
   version="1.1"
   inkscape:version="0.91 r13725"
   sodipodi:docname="text-surfer-logo.svg">
  <defs
     id="defs4" />
  <sodipodi:namedview
     id="base"
     pagecolor="#ffffff"
     bordercolor="#666666"
     borderopacity="1.0"
     inkscape:pageopacity="0.0"
     inkscape:pageshadow="2"
     inkscape:zoom="0.50373353"
     inkscape:cx="375"
     inkscape:cy="520"
     inkscape:document-units="px"
     inkscape:current-layer="layer1"
     showgrid="false"
     inkscape:window-width="1366"
     inkscape:window-height="716"
     inkscape:window-x="-8"
     inkscape:window-y="-8"
     inkscape:window-maximized="1"
     inkscape:snap-others="false"
     inkscape:snap-nodes="false" />
  <metadata
     id="metadata7">
    <rdf:RDF>
      <cc:Work
         rdf:about="">
        <dc:format>image/svg+xml</dc:format>
        <dc:type
           rdf:resource="http://purl.org/dc/dcmitype/StillImage" />
        <dc:title></dc:title>
      </cc:Work>
    </rdf:RDF>
  </metadata>
  <g
     inkscape:label="Layer 1"
     inkscape:groupmode="layer"
     id="layer1">
    <flowRoot
       xml:space="preserve"
       id="flowRoot4533"
       style="font-style:normal;font-weight:normal;font-size:40px;line-height:125%;font-family:sans-serif;letter-spacing:0px;word-spacing:0px;fill:#000000;fill-opacity:1;stroke:none;stroke-width:1px;stroke-linecap:butt;stroke-linejoin:miter;stroke-opacity:1"><flowRegion
         id="flowRegion4535"><rect
           id="rect4537"
           width="742.45605"
           height="222.33978"
           x="1.9851766"
           y="61.759094" /></flowRegion><flowPara
         id="flowPara4539"
         style="text-anchor:middle;text-align:center;font-size:90px;-inkscape-font-specification:'sans-serif Bold';font-family:sans-serif;font-weight:bold;font-style:normal;font-stretch:normal;font-variant:normal">Text Surfer</flowPara></flowRoot>    <path
       id="path4543"
       d="m 168.1696,242.88071 c 20.99011,-4.83325 42.11334,-9.07499 63.16921,-13.61951 20.84302,-4.12799 41.57544,-8.75684 62.30252,-13.42183 9.00903,-2.35981 18.27736,-3.80462 27.0688,-6.95969 1.46025,-0.52406 5.64291,-2.54842 4.31299,-1.7495 -6.9785,4.19219 -14.19853,7.96852 -21.2978,11.95278 1.00715,-1.04213 2.22347,-1.91659 3.02146,-3.12639 3.36087,-5.09524 4.37778,-11.97932 5.73435,-17.77993 3.10645,-13.28305 -0.10271,0.015 3.01694,-12.78704 4.38745,-13.35635 6.01337,-27.18007 6.50881,-41.16333 0.31302,-11.86385 -4.23032,-22.15165 -10.63618,-31.79054 -4.09329,-5.05886 -5.61437,-10.92136 -6.35182,-17.243516 0.16612,-4.882498 -1.86536,-10.850422 0.681,-15.406248 0.52314,-0.935968 1.33327,-1.679651 1.9999,-2.519477 10.98458,-8.020172 9.14387,-6.885236 31.96612,-17.634754 1.12901,-0.531775 11.69488,-1.312293 12.26016,-1.348058 5.32731,-0.337061 11.22016,-0.457071 16.53978,-0.609489 12.61571,0.388939 25.45463,-1.611382 38.00217,0.07924 1.25469,0.450912 2.61612,0.67464 3.76405,1.352736 8.14839,4.813364 11.44027,19.143118 13.59201,27.574234 1.59656,8.464838 3.15265,17.048662 3.51964,25.679202 0.22073,5.19094 -0.0855,7.36131 -0.4492,12.64569 -1.77609,14.38789 -5.97446,28.29472 -8.61305,42.52385 -1.52272,9.71117 -2.93196,19.43109 -3.73668,29.23019 -0.12218,1.00861 -0.24436,2.01721 -0.36655,3.02581 0,0 -26.2146,12.84256 -26.2146,12.84256 l 0,0 c 0.19132,-0.97143 0.38265,-1.94286 0.57398,-2.91429 0.99955,-9.95047 2.49828,-19.8296 4.09528,-29.69949 2.59757,-14.16237 7.06395,-27.92012 8.78368,-42.24198 0.82898,-12.60322 0.1302,-25.20538 -2.54072,-37.58768 -1.91719,-7.580674 -4.70085,-20.992493 -12.66354,-24.743794 -1.05395,-0.496522 -2.24415,-0.626998 -3.36622,-0.940498 -12.2893,-1.195821 -24.73006,-0.174592 -37.05112,-0.229857 -6.26003,0.269651 -10.51356,0.359178 -16.70735,0.982247 -2.26982,0.228335 -4.53972,0.488751 -6.78653,0.883809 -1.84582,0.324551 -6.98294,2.387348 -5.47652,1.27241 11.68602,-8.649135 29.81312,-16.766057 17.84526,-11.309816 -0.89597,0.686293 -3.26762,2.266917 -3.80283,3.49446 -1.27238,2.918262 0.24227,8.889309 -0.007,12.073781 0.60727,5.903877 1.8927,11.316853 5.57451,16.14422 6.35649,10.292018 10.88568,21.364078 10.71402,33.700768 -0.35685,14.05572 -1.18633,28.17794 -5.91926,41.55419 -1.67167,6.47258 -3.09037,12.97657 -4.59848,19.48723 -0.60812,2.62531 -2.17311,9.39594 -3.3369,12.00853 -0.65338,1.46675 -1.70142,2.72365 -2.55213,4.08547 -9.48557,5.42942 -18.85114,11.0741 -28.45672,16.28826 -1.33477,0.72455 -2.8538,1.04378 -4.30393,1.4951 -8.73,2.71699 -17.79485,4.14588 -26.64885,6.37207 -20.48295,4.46146 -40.95721,8.94446 -61.55937,12.8345 -21.73448,4.63757 -43.5838,8.96699 -64.93042,15.20419 0,0 23.3272,-17.96082 23.3272,-17.96082 z"
       inkscape:connector-curvature="0" />
  </g>
</svg>
